<svg id="Ebene_1" data-name="Ebene 1" xmlns="http://www.w3.org/2000/svg" viewBox="0 0 72 232.5"><defs><style>.cls-1{fill:#c1272d;}.cls-2{fill:#f7931e;}.cls-3{fill:#006837;}</style></defs><title>Ampel</title><g id="background"><path d="M168,236.43V279h12.34a5.65,5.65,0,0,1,5.66,5.66v4.68a5.65,5.65,0,0,1-5.66,5.66H119.66a5.65,5.65,0,0,1-5.66-5.66v-4.68a5.65,5.65,0,0,1,5.66-5.66H132V236.43a25.26,25.26,0,0,1-18-24.2V87.77A25.27,25.27,0,0,1,139.27,62.5h21.46A25.27,25.27,0,0,1,186,87.77V212.23A25.26,25.26,0,0,1,168,236.43Z" transform="translate(-114 -62.5)"/></g><circle id="red" class="cls-1" cx="36" cy="32.5" r="24.15"/><circle id="yellow" class="cls-2" cx="36" cy="87.5" r="24.15"/><circle id="green" class="cls-3" cx="36" cy="142.5" r="24.15"/></svg>